<?xml version="1.0" ?><svg style="enable-background:new 0 0 512 512;" version="1.1" viewBox="0 0 512 512" xml:space="preserve" xmlns="http://www.w3.org/2000/svg" xmlns:xlink="http://www.w3.org/1999/xlink"><g id="outerdark"><path d="M256.5,20C126.4,20,21,125.4,21,255.5S126.4,491,256.5,491S492,385.6,492,255.5S386.6,20,256.5,20z    M256,460.5c-112.9,0-204.5-91.6-204.5-204.5S143.1,51.5,256,51.5S460.5,143.1,460.5,256S368.9,460.5,256,460.5z" style="fill:#EA4C89;"/></g><g id="outerlight"><path d="M423.1,89l-22.4,22.4c37,37,59.8,88.1,59.8,144.6c0,112.9-91.6,204.5-204.5,204.5   c-56.4,0-107.6-22.9-144.6-59.8L90,422.1c92,92,241.1,92,333,0S515,181,423.1,89z" style="opacity:0.2;fill:#FFFFFF;"/></g><g id="innerdark"><circle cx="256" cy="256" r="180" style="fill:#EA4C89;"/></g><g id="Dribbble"><g><path d="M255.5,152.8c-57.2,0-103.8,46.5-103.8,103.7c0,57.2,46.6,103.7,103.8,103.7    c57.2,0,103.8-46.5,103.8-103.7C359.3,199.4,312.7,152.8,255.5,152.8z M324.1,200.7c12.4,15.1,19.8,34.3,20,55.2    c-2.9-0.6-32.2-6.6-61.7-2.9c-0.6-1.5-1.3-3-1.9-4.6c-1.8-4.3-3.8-8.6-5.9-12.8C307.4,222.2,322.2,203.2,324.1,200.7z     M255.5,168.1c22.5,0,43.1,8.4,58.8,22.3c-1.6,2.3-14.9,20.2-46.5,32c-14.5-26.7-30.6-48.6-33.1-51.8    C241.4,169,248.3,168.1,255.5,168.1z M217.8,176.5c2.3,3.2,18.2,25.1,32.9,51.2c-41.5,11-78,10.8-82,10.8    C174.4,211,193,188.2,217.8,176.5z M166.8,256.7c0-0.9,0-1.8,0-2.7c3.9,0.1,46.9,0.6,91.1-12.6c2.5,5,5,10,7.2,15    c-1.2,0.3-2.3,0.7-3.5,1.1c-45.7,14.8-70.1,55-72.1,58.4C175.4,300.2,166.8,279.4,166.8,256.7z M255.5,345.2    c-20.5,0-39.4-7-54.4-18.7c1.6-3.3,19.6-37.9,69.6-55.3c0.2-0.1,0.4-0.1,0.6-0.2c12.4,32.3,17.6,59.4,18.9,67.2    C279.5,342.7,267.8,345.2,255.5,345.2z M305,330.1c-0.9-5.4-5.6-31.3-17.2-63.1c27.8-4.4,52.2,2.8,55.2,3.8    C339.1,295.4,324.9,316.6,305,330.1z" style="fill:#E6E7E8;"/></g></g><g id="innerlight"><path d="M128.1,382.6c-70.3-70.3-70.3-184.3,0-254.6s184.3-70.3,254.6,0" style="opacity:0.2;fill:#FFFFFF;"/><g/><g/><g/><g/><g/><g/></g></svg>